<svg width="256" height="256" viewBox="0 0 256 256" fill="none" xmlns="http://www.w3.org/2000/svg">
  <rect width="256" height="256" rx="128" fill="#17314B"/>
  <circle cx="128" cy="128" r="104" fill="url(#bg)"/>
  <circle cx="128" cy="91" r="35" fill="#F4E1CF"/>
  <path d="M72 198C78 155 101 133 128 133C155 133 178 155 184 198" fill="#F2C16D"/>
  <path d="M86 89C93 62 113 47 128 47C144 47 163 61 170 87C155 81 142 79 128 79C114 79 101 81 86 89Z" fill="#8EB9DE"/>
  <path d="M99 58C111 43 144 40 158 58C145 60 135 66 128 75C122 66 112 60 99 58Z" fill="#FFF1C2"/>
  <circle cx="116" cy="88" r="4" fill="#17314B"/>
  <circle cx="140" cy="88" r="4" fill="#17314B"/>
  <path d="M119 102C124 106 132 106 137 102" stroke="#17314B" stroke-width="4" stroke-linecap="round"/>
  <path d="M92 48C103 30 117 21 128 21C139 21 153 30 164 48" stroke="#FFF1C2" stroke-width="8" stroke-linecap="round"/>
  <defs>
    <linearGradient id="bg" x1="41" y1="25" x2="217" y2="228" gradientUnits="userSpaceOnUse">
      <stop stop-color="#356493"/>
      <stop offset="1" stop-color="#74A8BF"/>
    </linearGradient>
  </defs>
</svg>
