<svg width="256" height="256" viewBox="0 0 256 256" fill="none" xmlns="http://www.w3.org/2000/svg">
  <rect width="256" height="256" rx="128" fill="#0F1B2F"/>
  <circle cx="128" cy="128" r="104" fill="url(#bg)"/>
  <circle cx="128" cy="87" r="36" fill="#F5EBD9"/>
  <path d="M73 197C80 154 102 132 128 132C154 132 176 154 183 197" fill="#E2B36D"/>
  <path d="M96 94C102 66 122 50 144 48C136 67 149 84 166 89C151 106 119 112 96 94Z" fill="#DCE7F7"/>
  <circle cx="116" cy="85" r="4" fill="#0F1B2F"/>
  <circle cx="141" cy="85" r="4" fill="#0F1B2F"/>
  <path d="M119 100C124 104 132 104 137 100" stroke="#0F1B2F" stroke-width="4" stroke-linecap="round"/>
  <circle cx="128" cy="84" r="58" stroke="#7FD6D2" stroke-width="8"/>
  <defs>
    <linearGradient id="bg" x1="40" y1="30" x2="215" y2="226" gradientUnits="userSpaceOnUse">
      <stop stop-color="#183252"/>
      <stop offset="1" stop-color="#245B7A"/>
    </linearGradient>
  </defs>
</svg>
