<svg width="256" height="256" viewBox="0 0 256 256" fill="none" xmlns="http://www.w3.org/2000/svg">
  <rect width="256" height="256" rx="128" fill="#27152E"/>
  <circle cx="128" cy="128" r="104" fill="url(#bg)"/>
  <circle cx="128" cy="91" r="35" fill="#F5DDCF"/>
  <path d="M72 198C81 155 103 133 128 133C153 133 175 155 184 198" fill="#B04A6D"/>
  <path d="M86 90C93 63 112 47 128 47C143 47 163 61 171 88C158 83 143 80 128 80C112 80 99 84 86 90Z" fill="#512647"/>
  <path d="M156 50L180 63L159 77L144 61L156 50Z" fill="#F07A93"/>
  <circle cx="116" cy="88" r="4" fill="#27152E"/>
  <circle cx="140" cy="88" r="4" fill="#27152E"/>
  <path d="M119 102C124 106 132 106 137 102" stroke="#27152E" stroke-width="4" stroke-linecap="round"/>
  <circle cx="184" cy="55" r="3" fill="#FFF1D6"/>
  <circle cx="195" cy="67" r="2.5" fill="#FFF1D6"/>
  <circle cx="172" cy="42" r="2.5" fill="#FFF1D6"/>
  <defs>
    <linearGradient id="bg" x1="38" y1="28" x2="217" y2="228" gradientUnits="userSpaceOnUse">
      <stop stop-color="#4A2243"/>
      <stop offset="1" stop-color="#863658"/>
    </linearGradient>
  </defs>
</svg>
